<?xml version="1.0" encoding="iso-8859-1"?>
<!-- Uploaded to: SVG Repo, www.svgrepo.com, Generator: SVG Repo Mixer Tools -->
<svg version="1.1" id="Layer_1" xmlns="http://www.w3.org/2000/svg" xmlns:xlink="http://www.w3.org/1999/xlink" 
	 viewBox="0 0 512 512" xml:space="preserve">
<polygon style="fill:#FFB7B2;" points="256,493.892 327.492,422.4 499.2,422.4 499.2,12.8 12.8,12.8 12.8,422.4 184.508,422.4 "/>
<g>
	<path style="fill:#573A32;" d="M486.4,0H25.6C11.46,0,0,11.46,0,25.6v384c0,14.14,11.46,25.6,25.6,25.6h153.6L256,512l76.8-76.8
		h153.6c14.14,0,25.6-11.46,25.6-25.6v-384C512,11.46,500.54,0,486.4,0z M486.4,409.6H322.193L256,475.793L189.807,409.6H25.6v-384
		h460.8V409.6z"/>
	<rect x="76.8" y="153.6" style="fill:#573A32;" width="358.4" height="25.6"/>
	<rect x="128" y="256" style="fill:#573A32;" width="256" height="25.6"/>
</g>
</svg>